<?xml version="1.0" encoding="UTF-8"?>
<svg width="48" height="48" viewBox="0 0 48 48" fill="none" xmlns="http://www.w3.org/2000/svg">
  <rect width="48" height="48" rx="8" fill="#5865F2"/>
  <path d="M35.0977 13.9219C33.3086 13.1133 31.3945 12.5195 29.3867 12.1641C29.3516 12.1641 29.3164 12.1641 29.2812 12.1992C29.0195 12.7227 28.7227 13.4258 28.5195 13.9844C26.3711 13.6641 24.2227 13.6641 22.1094 13.9844C21.9062 13.4258 21.5742 12.7227 21.3477 12.1992C21.3125 12.1641 21.2773 12.1641 21.2422 12.1641C19.2344 12.5195 17.3203 13.1133 15.5312 13.9219C15.4961 13.9219 15.4961 13.957 15.4609 13.957C12.0703 19.2188 11.1328 24.3398 11.5938 29.3906C11.5938 29.4258 11.6289 29.4609 11.6641 29.4961C14.0234 31.2148 16.3125 32.2578 18.5664 32.9609C18.6016 32.9609 18.6367 32.9609 18.6719 32.9258C19.2656 32.1172 19.7969 31.2734 20.2578 30.3945C20.293 30.3242 20.2578 30.2539 20.1875 30.2188C19.4844 29.9219 18.8164 29.5664 18.1836 29.1758C18.1133 29.1406 18.1133 29.0352 18.1836 28.9648C18.3516 28.8594 18.5195 28.7188 18.6875 28.6133C18.7227 28.5781 18.793 28.5781 18.8281 28.5781C23.7188 30.8672 29.0195 30.8672 33.8398 28.5781C33.875 28.5781 33.9453 28.5781 33.9805 28.6133C34.1484 28.7188 34.3164 28.8594 34.4844 28.9648C34.5547 29.0352 34.5547 29.1406 34.4844 29.1758C33.8516 29.6016 33.1836 29.9219 32.4805 30.2188C32.4102 30.2539 32.375 30.3242 32.4102 30.3945C32.8711 31.2734 33.4023 32.1172 33.9961 32.9258C34.0312 32.9609 34.0664 32.9609 34.1016 32.9609C36.3906 32.2578 38.6797 31.2148 41.0391 29.4961C41.0742 29.4609 41.1094 29.4258 41.1094 29.3906C41.6406 23.5664 40.1406 18.4805 37.1875 13.957C37.1523 13.957 37.1523 13.9219 37.1172 13.9219ZM20.7188 26.0234C19.0703 26.0234 17.7109 24.5234 17.7109 22.6797C17.7109 20.8359 19.0352 19.3359 20.7188 19.3359C22.4375 19.3359 23.7266 20.8711 23.7266 22.6797C23.7266 24.5234 22.4023 26.0234 20.7188 26.0234ZM29.9453 26.0234C28.2969 26.0234 26.9375 24.5234 26.9375 22.6797C26.9375 20.8359 28.2617 19.3359 29.9453 19.3359C31.6641 19.3359 32.9531 20.8711 32.9531 22.6797C32.9531 24.5234 31.6641 26.0234 29.9453 26.0234Z" fill="white"/>
</svg> 