<svg width="600" height="400" viewBox="0 0 600 400" fill="none" xmlns="http://www.w3.org/2000/svg">
  <g clip-path="url(#clip0_1_2)">
    <path d="M0 0H600V400H0V0Z" fill="white"/>
    <path d="M50 100L200 300L350 150L500 350" stroke="#48BB78" stroke-width="8"/>
    <text x="300" y="200" font-family="Arial" font-size="160" fill="#2F855A" text-anchor="middle">JOB</text>
    <g transform="translate(100,100)">
      <circle cx="50" cy="50" r="20" fill="#9FE2BF"/>
      <circle cx="150" cy="50" r="20" fill="#9FE2BF"/>
      <circle cx="250" cy="50" r="20" fill="#9FE2BF"/>
      <path d="M50 90C50 90 100 120 150 90" stroke="#48BB78" stroke-width="4" fill="none"/>
      <path d="M150 90C150 90 200 120 250 90" stroke="#48BB78" stroke-width="4" fill="none"/>
    </g>
    <g transform="translate(50,250)">
      <rect x="0" y="0" width="40" height="40" fill="#48BB78"/>
      <rect x="50" y="0" width="40" height="40" fill="#48BB78"/>
      <rect x="100" y="0" width="40" height="40" fill="#48BB78"/>
    </g>
    <path d="M400 50C450 50 450 100 400 100C350 100 350 50 400 50Z" fill="#9FE2BF"/>
    <path d="M450 200C500 200 500 250 450 250C400 250 400 200 450 200Z" fill="#9FE2BF"/>
  </g>
  <defs>
    <clipPath id="clip0_1_2">
      <rect width="600" height="400" fill="white"/>
    </clipPath>
  </defs>
</svg> 