<?xml version="1.0" encoding="UTF-8"?>
<svg width="100" height="100" viewBox="0 0 100 100" fill="none" xmlns="http://www.w3.org/2000/svg">
  <!-- Plant stem -->
  <path d="M50 90V50" stroke="#2F855A" stroke-width="4"/>
  
  <!-- Leaves -->
  <path d="M50 50C50 50 30 30 10 40C30 50 50 50 50 50Z" fill="#48BB78"/>
  <path d="M50 50C50 50 70 30 90 40C70 50 50 50 50 50Z" fill="#48BB78"/>
  <path d="M50 40C50 40 30 20 10 30C30 40 50 40 50 40Z" fill="#48BB78"/>
  <path d="M50 40C50 40 70 20 90 30C70 40 50 40 50 40Z" fill="#48BB78"/>
  
  <!-- Pot -->
  <path d="M30 90L40 70H60L70 90H30Z" fill="#4A5568"/>
</svg> 